<mxfile host="app.diagrams.net" modified="2020-07-25T14:00:14.706Z" agent="5.0 (Windows)" etag="nf6569l2wYFYQoJC6fmu" version="13.5.3" type="github">
  <diagram name="Page-1" id="13e1069c-82ec-6db2-03f1-153e76fe0fe0">
    <mxGraphModel dx="1030" dy="576" grid="1" gridSize="10" guides="1" tooltips="1" connect="1" arrows="1" fold="1" page="1" pageScale="1" pageWidth="1100" pageHeight="850" background="#ffffff" math="0" shadow="0">
      <root>
        <mxCell id="0" />
        <mxCell id="1" parent="0" />
        <mxCell id="8arC8rWutVrWSPrYwMp4-3" value="Authentication&lt;br&gt;ServiceClient" style="shape=umlLifeline;perimeter=lifelinePerimeter;whiteSpace=wrap;html=1;container=1;collapsible=0;recursiveResize=0;outlineConnect=0;" vertex="1" parent="1">
          <mxGeometry x="370" y="60" width="100" height="420" as="geometry" />
        </mxCell>
        <mxCell id="8arC8rWutVrWSPrYwMp4-10" value="" style="html=1;points=[];perimeter=orthogonalPerimeter;" vertex="1" parent="8arC8rWutVrWSPrYwMp4-3">
          <mxGeometry x="50" y="80" width="10" height="60" as="geometry" />
        </mxCell>
        <mxCell id="8arC8rWutVrWSPrYwMp4-30" value="" style="html=1;points=[];perimeter=orthogonalPerimeter;" vertex="1" parent="8arC8rWutVrWSPrYwMp4-3">
          <mxGeometry x="45" y="160" width="10" height="90" as="geometry" />
        </mxCell>
        <mxCell id="8arC8rWutVrWSPrYwMp4-31" value="1. Encrypt plainLooginName by&lt;br&gt;AutheticationService public key&lt;br&gt;&lt;div&gt;2. Append salt to platinPassword;&lt;/div&gt;&lt;div&gt;3. Hashed salted plainPassword;&lt;/div&gt;&lt;div&gt;4. Encryped hashedPassword.&lt;br&gt;&lt;/div&gt;" style="edgeStyle=orthogonalEdgeStyle;html=1;align=left;spacingLeft=2;endArrow=block;rounded=0;exitX=0.6;exitY=0;exitDx=0;exitDy=0;exitPerimeter=0;" edge="1" target="8arC8rWutVrWSPrYwMp4-3" parent="8arC8rWutVrWSPrYwMp4-3" source="8arC8rWutVrWSPrYwMp4-30">
          <mxGeometry x="-0.1078" relative="1" as="geometry">
            <mxPoint x="50" y="200" as="sourcePoint" />
            <Array as="points">
              <mxPoint x="110" y="160" />
              <mxPoint x="110" y="230" />
            </Array>
            <mxPoint x="60" y="191" as="targetPoint" />
            <mxPoint as="offset" />
          </mxGeometry>
        </mxCell>
        <mxCell id="8arC8rWutVrWSPrYwMp4-37" value="Authenticate(cipherLoginName, clpherPassowrd)" style="html=1;verticalAlign=bottom;endArrow=block;" edge="1" parent="8arC8rWutVrWSPrYwMp4-3" target="8arC8rWutVrWSPrYwMp4-4">
          <mxGeometry width="80" relative="1" as="geometry">
            <mxPoint x="50" y="250" as="sourcePoint" />
            <mxPoint x="130" y="250" as="targetPoint" />
          </mxGeometry>
        </mxCell>
        <mxCell id="8arC8rWutVrWSPrYwMp4-4" value="Authentication&lt;br&gt;Service" style="shape=umlLifeline;perimeter=lifelinePerimeter;whiteSpace=wrap;html=1;container=1;collapsible=0;recursiveResize=0;outlineConnect=0;" vertex="1" parent="1">
          <mxGeometry x="670" y="60" width="100" height="420" as="geometry" />
        </mxCell>
        <mxCell id="8arC8rWutVrWSPrYwMp4-27" value="" style="html=1;points=[];perimeter=orthogonalPerimeter;" vertex="1" parent="8arC8rWutVrWSPrYwMp4-4">
          <mxGeometry x="45" y="90" width="10" height="60" as="geometry" />
        </mxCell>
        <mxCell id="8arC8rWutVrWSPrYwMp4-28" value="1. Generate RSA KeyPair;&lt;br&gt;2. Initial Correlation UUID;&lt;br&gt;3. Generate ramdom password salt" style="edgeStyle=orthogonalEdgeStyle;html=1;align=left;spacingLeft=2;endArrow=block;rounded=0;entryX=0.9;entryY=0.633;entryDx=0;entryDy=0;entryPerimeter=0;exitX=0.98;exitY=-0.013;exitDx=0;exitDy=0;exitPerimeter=0;" edge="1" target="8arC8rWutVrWSPrYwMp4-27" parent="8arC8rWutVrWSPrYwMp4-4" source="8arC8rWutVrWSPrYwMp4-27">
          <mxGeometry relative="1" as="geometry">
            <mxPoint x="120" y="100" as="sourcePoint" />
            <Array as="points">
              <mxPoint x="55" y="91" />
              <mxPoint x="120" y="91" />
              <mxPoint x="120" y="128" />
            </Array>
          </mxGeometry>
        </mxCell>
        <mxCell id="8arC8rWutVrWSPrYwMp4-38" value="" style="html=1;points=[];perimeter=orthogonalPerimeter;" vertex="1" parent="8arC8rWutVrWSPrYwMp4-4">
          <mxGeometry x="45" y="250" width="10" height="70" as="geometry" />
        </mxCell>
        <mxCell id="8arC8rWutVrWSPrYwMp4-39" value="&lt;div&gt;1. decrypted cipherLoginName&amp;nbsp; by private key;&lt;/div&gt;&lt;div&gt;2. decrypted cipherPassword by private key;&lt;/div&gt;&lt;div&gt;3. find user and related password;&lt;/div&gt;&lt;div&gt;4. if found, salted password and hash it;&lt;/div&gt;&lt;div&gt;5. compare password match or not.&lt;br&gt;&lt;/div&gt;" style="edgeStyle=orthogonalEdgeStyle;html=1;align=left;spacingLeft=2;endArrow=block;rounded=0;exitX=0.74;exitY=0;exitDx=0;exitDy=0;exitPerimeter=0;" edge="1" parent="8arC8rWutVrWSPrYwMp4-4" source="8arC8rWutVrWSPrYwMp4-38">
          <mxGeometry relative="1" as="geometry">
            <mxPoint x="50" y="270" as="sourcePoint" />
            <Array as="points">
              <mxPoint x="120" y="250" />
              <mxPoint x="120" y="318" />
            </Array>
            <mxPoint x="49" y="318" as="targetPoint" />
          </mxGeometry>
        </mxCell>
        <mxCell id="8arC8rWutVrWSPrYwMp4-5" value="MainForm" style="shape=umlLifeline;perimeter=lifelinePerimeter;whiteSpace=wrap;html=1;container=1;collapsible=0;recursiveResize=0;outlineConnect=0;" vertex="1" parent="1">
          <mxGeometry x="60" y="60" width="100" height="420" as="geometry" />
        </mxCell>
        <mxCell id="8arC8rWutVrWSPrYwMp4-23" value="authenticate(plainUserName, plainPassword)" style="html=1;verticalAlign=bottom;endArrow=block;" edge="1" parent="8arC8rWutVrWSPrYwMp4-5" target="8arC8rWutVrWSPrYwMp4-3">
          <mxGeometry width="80" relative="1" as="geometry">
            <mxPoint x="50" y="160" as="sourcePoint" />
            <mxPoint x="130" y="160" as="targetPoint" />
          </mxGeometry>
        </mxCell>
        <mxCell id="8arC8rWutVrWSPrYwMp4-11" value="new AuthenticationSericeClient()" style="html=1;verticalAlign=bottom;endArrow=block;entryX=0;entryY=0;" edge="1" target="8arC8rWutVrWSPrYwMp4-10" parent="1" source="8arC8rWutVrWSPrYwMp4-5">
          <mxGeometry relative="1" as="geometry">
            <mxPoint x="350" y="160" as="sourcePoint" />
          </mxGeometry>
        </mxCell>
        <mxCell id="8arC8rWutVrWSPrYwMp4-14" value="Initialize()" style="html=1;verticalAlign=bottom;endArrow=block;" edge="1" target="8arC8rWutVrWSPrYwMp4-4" parent="1">
          <mxGeometry relative="1" as="geometry">
            <mxPoint x="430" y="150" as="sourcePoint" />
            <mxPoint x="665" y="150" as="targetPoint" />
          </mxGeometry>
        </mxCell>
        <mxCell id="8arC8rWutVrWSPrYwMp4-15" value="return ServiceRequestMetaData" style="html=1;verticalAlign=bottom;endArrow=open;dashed=1;endSize=8;exitX=-0.3;exitY=0.85;exitDx=0;exitDy=0;exitPerimeter=0;entryX=1.5;entryY=0.967;entryDx=0;entryDy=0;entryPerimeter=0;" edge="1" source="8arC8rWutVrWSPrYwMp4-27" parent="1" target="8arC8rWutVrWSPrYwMp4-10">
          <mxGeometry relative="1" as="geometry">
            <mxPoint x="430" y="201" as="targetPoint" />
            <mxPoint x="665" y="169" as="sourcePoint" />
          </mxGeometry>
        </mxCell>
        <mxCell id="8arC8rWutVrWSPrYwMp4-21" value="return" style="html=1;verticalAlign=bottom;endArrow=open;dashed=1;endSize=8;" edge="1" parent="1">
          <mxGeometry relative="1" as="geometry">
            <mxPoint x="419.5" y="198" as="sourcePoint" />
            <mxPoint x="109.5" y="198" as="targetPoint" />
            <Array as="points">
              <mxPoint x="360" y="198" />
              <mxPoint x="180" y="198" />
            </Array>
          </mxGeometry>
        </mxCell>
        <mxCell id="8arC8rWutVrWSPrYwMp4-42" value="return" style="html=1;verticalAlign=bottom;endArrow=open;dashed=1;endSize=8;" edge="1" parent="1" source="8arC8rWutVrWSPrYwMp4-4">
          <mxGeometry relative="1" as="geometry">
            <mxPoint x="669.5" y="380" as="sourcePoint" />
            <mxPoint x="420.0999999999999" y="380" as="targetPoint" />
          </mxGeometry>
        </mxCell>
        <mxCell id="8arC8rWutVrWSPrYwMp4-44" value="return" style="html=1;verticalAlign=bottom;endArrow=open;dashed=1;endSize=8;exitX=0.5;exitY=0.762;exitDx=0;exitDy=0;exitPerimeter=0;" edge="1" parent="1" source="8arC8rWutVrWSPrYwMp4-3" target="8arC8rWutVrWSPrYwMp4-5">
          <mxGeometry relative="1" as="geometry">
            <mxPoint x="280" y="260" as="sourcePoint" />
            <mxPoint x="200" y="260" as="targetPoint" />
          </mxGeometry>
        </mxCell>
      </root>
    </mxGraphModel>
  </diagram>
</mxfile>
